<?xml version="1.0" encoding="UTF-8" standalone="no"?>
<!-- Created with Inkscape (http://www.inkscape.org/) -->

<svg
   xmlns:dc="http://purl.org/dc/elements/1.1/"
   xmlns:cc="http://creativecommons.org/ns#"
   xmlns:rdf="http://www.w3.org/1999/02/22-rdf-syntax-ns#"
   xmlns:svg="http://www.w3.org/2000/svg"
   xmlns="http://www.w3.org/2000/svg"
   xmlns:xlink="http://www.w3.org/1999/xlink"
   xmlns:sodipodi="http://sodipodi.sourceforge.net/DTD/sodipodi-0.dtd"
   xmlns:inkscape="http://www.inkscape.org/namespaces/inkscape"
   width="290"
   height="57"
   viewBox="0 0 290.00001 57"
   id="svg4877"
   version="1.1"
   inkscape:version="0.91 r13725"
   sodipodi:docname="logo_rv.svg">
  <defs
     id="defs4879">
    <clipPath
       id="SVGID_4_">
      <use
         height="100%"
         width="100%"
         y="0"
         x="0"
         style="overflow:visible"
         xlink:href="#SVGID_3_"
         overflow="visible"
         id="use101" />
    </clipPath>
    <clipPath
       id="clipPath5435">
      <use
         height="100%"
         width="100%"
         y="0"
         x="0"
         style="overflow:visible"
         xlink:href="#SVGID_3_"
         overflow="visible"
         id="use5437" />
    </clipPath>
    <clipPath
       id="clipPath5439">
      <use
         height="100%"
         width="100%"
         y="0"
         x="0"
         style="overflow:visible"
         xlink:href="#SVGID_3_"
         overflow="visible"
         id="use5441" />
    </clipPath>
    <clipPath
       id="clipPath5443">
      <use
         height="100%"
         width="100%"
         y="0"
         x="0"
         style="overflow:visible"
         xlink:href="#SVGID_3_"
         overflow="visible"
         id="use5445" />
    </clipPath>
    <clipPath
       id="clipPath5447">
      <use
         height="100%"
         width="100%"
         y="0"
         x="0"
         style="overflow:visible"
         xlink:href="#SVGID_3_"
         overflow="visible"
         id="use5449" />
    </clipPath>
    <clipPath
       id="clipPath5451">
      <use
         height="100%"
         width="100%"
         y="0"
         x="0"
         style="overflow:visible"
         xlink:href="#SVGID_3_"
         overflow="visible"
         id="use5453" />
    </clipPath>
    <clipPath
       id="clipPath5455">
      <use
         height="100%"
         width="100%"
         y="0"
         x="0"
         style="overflow:visible"
         xlink:href="#SVGID_3_"
         overflow="visible"
         id="use5457" />
    </clipPath>
    <clipPath
       id="clipPath5459">
      <use
         height="100%"
         width="100%"
         y="0"
         x="0"
         style="overflow:visible"
         xlink:href="#SVGID_3_"
         overflow="visible"
         id="use5461" />
    </clipPath>
    <clipPath
       id="clipPath5463">
      <use
         height="100%"
         width="100%"
         y="0"
         x="0"
         style="overflow:visible"
         xlink:href="#SVGID_3_"
         overflow="visible"
         id="use5465" />
    </clipPath>
    <clipPath
       id="clipPath5467">
      <use
         height="100%"
         width="100%"
         y="0"
         x="0"
         style="overflow:visible"
         xlink:href="#SVGID_3_"
         overflow="visible"
         id="use5469" />
    </clipPath>
    <clipPath
       id="clipPath5471">
      <use
         height="100%"
         width="100%"
         y="0"
         x="0"
         style="overflow:visible"
         xlink:href="#SVGID_3_"
         overflow="visible"
         id="use5473" />
    </clipPath>
    <clipPath
       id="SVGID_6_">
      <use
         height="100%"
         width="100%"
         y="0"
         x="0"
         style="overflow:visible"
         xlink:href="#SVGID_5_"
         overflow="visible"
         id="use129" />
    </clipPath>
    <clipPath
       id="clipPath5477">
      <use
         height="100%"
         width="100%"
         y="0"
         x="0"
         style="overflow:visible"
         xlink:href="#SVGID_5_"
         overflow="visible"
         id="use5479" />
    </clipPath>
    <clipPath
       id="clipPath5481">
      <use
         height="100%"
         width="100%"
         y="0"
         x="0"
         style="overflow:visible"
         xlink:href="#SVGID_5_"
         overflow="visible"
         id="use5483" />
    </clipPath>
    <clipPath
       id="clipPath5485">
      <use
         height="100%"
         width="100%"
         y="0"
         x="0"
         style="overflow:visible"
         xlink:href="#SVGID_5_"
         overflow="visible"
         id="use5487" />
    </clipPath>
    <clipPath
       id="clipPath5489">
      <use
         height="100%"
         width="100%"
         y="0"
         x="0"
         style="overflow:visible"
         xlink:href="#SVGID_5_"
         overflow="visible"
         id="use5491" />
    </clipPath>
    <clipPath
       id="clipPath5493">
      <use
         height="100%"
         width="100%"
         y="0"
         x="0"
         style="overflow:visible"
         xlink:href="#SVGID_5_"
         overflow="visible"
         id="use5495" />
    </clipPath>
    <clipPath
       id="clipPath5497">
      <use
         height="100%"
         width="100%"
         y="0"
         x="0"
         style="overflow:visible"
         xlink:href="#SVGID_5_"
         overflow="visible"
         id="use5499" />
    </clipPath>
    <clipPath
       id="clipPath5501">
      <use
         height="100%"
         width="100%"
         y="0"
         x="0"
         style="overflow:visible"
         xlink:href="#SVGID_5_"
         overflow="visible"
         id="use5503" />
    </clipPath>
    <clipPath
       id="clipPath5505">
      <use
         height="100%"
         width="100%"
         y="0"
         x="0"
         style="overflow:visible"
         xlink:href="#SVGID_5_"
         overflow="visible"
         id="use5507" />
    </clipPath>
    <clipPath
       id="clipPath5509">
      <use
         height="100%"
         width="100%"
         y="0"
         x="0"
         style="overflow:visible"
         xlink:href="#SVGID_5_"
         overflow="visible"
         id="use5511" />
    </clipPath>
    <clipPath
       id="clipPath5513">
      <use
         height="100%"
         width="100%"
         y="0"
         x="0"
         style="overflow:visible"
         xlink:href="#SVGID_5_"
         overflow="visible"
         id="use5515" />
    </clipPath>
    <clipPath
       id="clipPath5517">
      <use
         height="100%"
         width="100%"
         y="0"
         x="0"
         style="overflow:visible"
         xlink:href="#SVGID_5_"
         overflow="visible"
         id="use5519" />
    </clipPath>
    <clipPath
       id="clipPath5521">
      <use
         height="100%"
         width="100%"
         y="0"
         x="0"
         style="overflow:visible"
         xlink:href="#SVGID_5_"
         overflow="visible"
         id="use5523" />
    </clipPath>
    <clipPath
       id="SVGID_2_">
      <use
         height="100%"
         width="100%"
         y="0"
         x="0"
         style="overflow:visible"
         xlink:href="#SVGID_1_"
         overflow="visible"
         id="use57" />
    </clipPath>
    <clipPath
       id="clipPath5527">
      <use
         height="100%"
         width="100%"
         y="0"
         x="0"
         style="overflow:visible"
         xlink:href="#SVGID_1_"
         overflow="visible"
         id="use5529" />
    </clipPath>
    <clipPath
       id="clipPath5531">
      <use
         height="100%"
         width="100%"
         y="0"
         x="0"
         style="overflow:visible"
         xlink:href="#SVGID_1_"
         overflow="visible"
         id="use5533" />
    </clipPath>
    <clipPath
       id="clipPath5535">
      <use
         height="100%"
         width="100%"
         y="0"
         x="0"
         style="overflow:visible"
         xlink:href="#SVGID_1_"
         overflow="visible"
         id="use5537" />
    </clipPath>
    <clipPath
       id="clipPath5539">
      <use
         height="100%"
         width="100%"
         y="0"
         x="0"
         style="overflow:visible"
         xlink:href="#SVGID_1_"
         overflow="visible"
         id="use5541" />
    </clipPath>
    <clipPath
       id="clipPath5543">
      <use
         height="100%"
         width="100%"
         y="0"
         x="0"
         style="overflow:visible"
         xlink:href="#SVGID_1_"
         overflow="visible"
         id="use5545" />
    </clipPath>
    <clipPath
       id="clipPath5547">
      <use
         height="100%"
         width="100%"
         y="0"
         x="0"
         style="overflow:visible"
         xlink:href="#SVGID_1_"
         overflow="visible"
         id="use5549" />
    </clipPath>
    <clipPath
       id="clipPath5551">
      <use
         height="100%"
         width="100%"
         y="0"
         x="0"
         style="overflow:visible"
         xlink:href="#SVGID_1_"
         overflow="visible"
         id="use5553" />
    </clipPath>
    <clipPath
       id="clipPath5555">
      <use
         height="100%"
         width="100%"
         y="0"
         x="0"
         style="overflow:visible"
         xlink:href="#SVGID_1_"
         overflow="visible"
         id="use5557" />
    </clipPath>
    <clipPath
       id="clipPath5559">
      <use
         height="100%"
         width="100%"
         y="0"
         x="0"
         style="overflow:visible"
         xlink:href="#SVGID_1_"
         overflow="visible"
         id="use5561" />
    </clipPath>
    <clipPath
       id="clipPath5563">
      <use
         height="100%"
         width="100%"
         y="0"
         x="0"
         style="overflow:visible"
         xlink:href="#SVGID_1_"
         overflow="visible"
         id="use5565" />
    </clipPath>
    <clipPath
       id="clipPath5567">
      <use
         height="100%"
         width="100%"
         y="0"
         x="0"
         style="overflow:visible"
         xlink:href="#SVGID_1_"
         overflow="visible"
         id="use5569" />
    </clipPath>
    <clipPath
       id="clipPath5571">
      <use
         height="100%"
         width="100%"
         y="0"
         x="0"
         style="overflow:visible"
         xlink:href="#SVGID_1_"
         overflow="visible"
         id="use5573" />
    </clipPath>
    <clipPath
       id="clipPath5575">
      <use
         height="100%"
         width="100%"
         y="0"
         x="0"
         style="overflow:visible"
         xlink:href="#SVGID_1_"
         overflow="visible"
         id="use5577" />
    </clipPath>
    <clipPath
       id="clipPath5579">
      <use
         height="100%"
         width="100%"
         y="0"
         x="0"
         style="overflow:visible"
         xlink:href="#SVGID_1_"
         overflow="visible"
         id="use5581" />
    </clipPath>
    <clipPath
       id="clipPath5583">
      <use
         height="100%"
         width="100%"
         y="0"
         x="0"
         style="overflow:visible"
         xlink:href="#SVGID_1_"
         overflow="visible"
         id="use5585" />
    </clipPath>
  </defs>
  <sodipodi:namedview
     id="base"
     pagecolor="#ffffff"
     bordercolor="#666666"
     borderopacity="1.0"
     inkscape:pageopacity="0.0"
     inkscape:pageshadow="2"
     inkscape:zoom="3.959798"
     inkscape:cx="145.93119"
     inkscape:cy="30.779917"
     inkscape:document-units="px"
     inkscape:current-layer="layer1"
     showgrid="false"
     units="px"
     inkscape:window-width="1920"
     inkscape:window-height="1018"
     inkscape:window-x="-8"
     inkscape:window-y="-8"
     inkscape:window-maximized="1" />
  <metadata
     id="metadata4882">
    <rdf:RDF>
      <cc:Work
         rdf:about="">
        <dc:format>image/svg+xml</dc:format>
        <dc:type
           rdf:resource="http://purl.org/dc/dcmitype/StillImage" />
        <dc:title></dc:title>
      </cc:Work>
    </rdf:RDF>
  </metadata>
  <g
     inkscape:label="Layer 1"
     inkscape:groupmode="layer"
     id="layer1"
     transform="translate(0,-995.36216)">
    <line
       style="fill:#ffffff"
       x1="52.241673"
       y1="1048.2208"
       x2="63.353107"
       y2="1021.7584"
       id="line3" />
    <rect
       style="fill:#020203"
       x="453.26099"
       y="917.66595"
       transform="matrix(0.92211843,0.38690773,-0.38690773,0.92211843,0,0)"
       width="0.96833634"
       height="28.70002"
       id="rect5" />
    <line
       style="fill:#ffffff"
       x1="16.861296"
       y1="1037.84"
       x2="23.440245"
       y2="1021.7584"
       id="line7" />
    <rect
       style="fill:#020203"
       x="407.74277"
       y="936.95917"
       transform="matrix(0.92568548,0.37829406,-0.37829406,0.92568548,0,0)"
       width="0.96837091"
       height="17.376324"
       id="rect9" />
    <line
       style="fill:#ffffff"
       x1="16.864511"
       y1="1037.84"
       x2="4.1414375"
       y2="1021.7584"
       id="line11" />
    <rect
       style="fill:#020203"
       x="803.91888"
       y="630.16095"
       transform="matrix(0.62039297,0.78429112,-0.78429112,0.62039297,0,0)"
       width="20.506634"
       height="0.96872437"
       id="rect13" />
    <rect
       style="fill:#020203"
       x="1002.7794"
       y="62.767071"
       transform="matrix(0.08479983,0.99639801,-0.99639801,0.08479983,0,0)"
       width="17.25808"
       height="0.96835774"
       id="rect15" />
    <line
       style="fill:#ffffff"
       x1="23.478151"
       y1="1021.7303"
       x2="22.013815"
       y2="1004.535"
       id="line17" />
    <line
       style="fill:#ffffff"
       x1="42.500191"
       y1="1036.5165"
       x2="23.478151"
       y2="1021.7303"
       id="line19" />
    <rect
       style="fill:#020203"
       x="645.58881"
       y="791.78534"
       transform="matrix(0.7895245,0.61371904,-0.61371904,0.7895245,0,0)"
       width="24.091572"
       height="0.96832561"
       id="rect21" />
    <line
       style="fill:#ffffff"
       x1="47.508247"
       y1="1001.2819"
       x2="22.076391"
       y2="1004.598"
       id="line23" />
    <rect
       style="fill:#020203"
       x="998.55774"
       y="82.058792"
       transform="matrix(0.1290057,0.99164385,-0.99164385,0.1290057,0,0)"
       width="0.96867061"
       height="25.645634"
       id="rect25" />
    <line
       style="fill:#ffffff"
       x1="63.320553"
       y1="1021.7935"
       x2="47.508247"
       y2="1001.2819"
       id="line27" />
    <rect
       style="fill:#020203"
       x="822.02496"
       y="573.17999"
       transform="matrix(0.61050786,0.7920102,-0.7920102,0.61050786,0,0)"
       width="25.898891"
       height="0.96834332"
       id="rect29" />
    <line
       style="fill:#ffffff"
       x1="22.013815"
       y1="1004.535"
       x2="4.152864"
       y2="1021.7303"
       id="line31" />
    <rect
       style="fill:#020203"
       x="738.18652"
       y="681.12286"
       transform="matrix(0.69383384,0.72013513,-0.72013513,0.69383384,0,0)"
       width="0.96830857"
       height="24.792347"
       id="rect33" />
    <line
       style="fill:#ffffff"
       x1="23.478151"
       y1="1021.7303"
       x2="47.445312"
       y2="1001.2188"
       id="line35" />
    <rect
       style="fill:#020203"
       x="791.07269"
       y="614.92798"
       transform="matrix(0.65018177,0.7597787,-0.7597787,0.65018177,0,0)"
       width="0.96838289"
       height="31.546825"
       id="rect37" />
    <line
       style="fill:#ffffff"
       x1="63.257961"
       y1="1021.7303"
       x2="42.500191"
       y2="1036.5165"
       id="line39" />
    <rect
       style="fill:#020203"
       x="868.24689"
       y="541.51068"
       transform="matrix(0.5804149,0.81432091,-0.81432091,0.5804149,0,0)"
       width="0.96868849"
       height="25.484838"
       id="rect41" />
    <line
       style="fill:#ffffff"
       x1="42.446556"
       y1="1036.5245"
       x2="16.864864"
       y2="1037.84"
       id="line43" />
    <rect
       style="fill:#020203"
       x="1036.8568"
       y="10.679996"
       transform="matrix(0.05119941,0.99868845,-0.99868845,0.05119941,0,0)"
       width="0.96872449"
       height="25.615597"
       id="rect45" />
    <line
       style="fill:#ffffff"
       x1="52.241673"
       y1="1048.2208"
       x2="42.446556"
       y2="1036.5245"
       id="line47" />
    <rect
       style="fill:#020203"
       x="821.91101"
       y="632.49371"
       transform="matrix(0.64206106,0.7666535,-0.7666535,0.64206106,0,0)"
       width="15.256818"
       height="0.96841455"
       id="rect49" />
    <g
       transform="matrix(0.35759076,0,0,0.35759076,-9.8307103,916.38154)"
       id="g51">
      <defs
         id="defs53">
        <rect
           id="SVGID_1_"
           x="3.957"
           y="227.907"
           width="235.26601"
           height="149.505" />
      </defs>
      <clipPath
         id="clipPath5614">
        <use
           height="100%"
           width="100%"
           y="0"
           x="0"
           style="overflow:visible"
           xlink:href="#SVGID_1_"
           overflow="visible"
           id="use5616" />
      </clipPath>
      <path
         style="fill:#ffffff"
         inkscape:connector-curvature="0"
         clip-path="url(#SVGID_2_)"
         d="m 74.518,346.239 c -3.74,0 -6.783,-3.043 -6.783,-6.783 0,-3.74 3.043,-6.783 6.783,-6.783 3.739,0 6.782,3.043 6.782,6.783 0,3.74 -3.043,6.783 -6.782,6.783"
         id="path59" />
      <path
         style="fill:#020203"
         inkscape:connector-curvature="0"
         clip-path="url(#SVGID_2_)"
         d="m 74.518,334.027 c 2.992,0 5.428,2.436 5.428,5.429 0,2.993 -2.436,5.429 -5.428,5.429 -2.994,0 -5.429,-2.436 -5.429,-5.429 0,-2.993 2.435,-5.429 5.429,-5.429 m 0,-2.709 c -4.495,0 -8.137,3.644 -8.137,8.138 0,4.494 3.643,8.137 8.137,8.137 4.494,0 8.137,-3.643 8.137,-8.137 0,-4.494 -3.643,-8.138 -8.137,-8.138"
         id="path61" />
      <path
         style="fill:#ffffff"
         inkscape:connector-curvature="0"
         clip-path="url(#SVGID_2_)"
         d="m 173.459,374.858 c -3.74,0 -6.783,-3.043 -6.783,-6.782 0,-3.74 3.042,-6.783 6.783,-6.783 3.74,0 6.783,3.043 6.783,6.783 0.001,3.739 -3.043,6.782 -6.783,6.782"
         id="path63" />
      <path
         style="fill:#020203"
         inkscape:connector-curvature="0"
         clip-path="url(#SVGID_2_)"
         d="m 173.459,362.647 c 2.993,0 5.428,2.436 5.428,5.429 0,2.993 -2.435,5.428 -5.428,5.428 -2.993,0 -5.429,-2.435 -5.429,-5.428 0,-2.993 2.437,-5.429 5.429,-5.429 m 0,-2.709 c -4.494,0 -8.137,3.643 -8.137,8.138 0,4.494 3.643,8.137 8.137,8.137 4.495,0 8.136,-3.643 8.136,-8.137 0.001,-4.495 -3.641,-8.138 -8.136,-8.138"
         id="path65" />
      <path
         style="fill:#ffffff"
         inkscape:connector-curvature="0"
         clip-path="url(#SVGID_2_)"
         d="m 146.193,342.762 c -3.74,0 -6.783,-3.042 -6.783,-6.783 0,-3.738 3.042,-6.782 6.783,-6.782 3.739,0 6.783,3.044 6.783,6.782 0,3.741 -3.044,6.783 -6.783,6.783"
         id="path67" />
      <path
         style="fill:#020203"
         inkscape:connector-curvature="0"
         clip-path="url(#SVGID_2_)"
         d="m 146.193,330.551 c 2.993,0 5.428,2.436 5.428,5.428 0,2.994 -2.435,5.429 -5.428,5.429 -2.994,0 -5.428,-2.435 -5.428,-5.429 0,-2.993 2.434,-5.428 5.428,-5.428 m 0,-2.708 c -4.494,0 -8.137,3.643 -8.137,8.136 0,4.495 3.644,8.138 8.137,8.138 4.494,0 8.136,-3.643 8.136,-8.138 0,-4.494 -3.642,-8.136 -8.136,-8.136"
         id="path69" />
      <path
         style="fill:#ffffff"
         inkscape:connector-curvature="0"
         clip-path="url(#SVGID_2_)"
         d="m 160.376,244.026 c -3.74,0 -6.783,-3.043 -6.783,-6.783 0,-3.739 3.042,-6.782 6.783,-6.782 3.74,0 6.783,3.043 6.783,6.782 0,3.74 -3.043,6.783 -6.783,6.783"
         id="path71" />
      <path
         style="fill:#020203"
         inkscape:connector-curvature="0"
         clip-path="url(#SVGID_2_)"
         d="m 160.376,231.815 c 2.993,0 5.428,2.435 5.428,5.428 0,2.994 -2.435,5.428 -5.428,5.428 -2.993,0 -5.428,-2.434 -5.428,-5.428 0,-2.993 2.435,-5.428 5.428,-5.428 m 0,-2.709 c -4.494,0 -8.137,3.643 -8.137,8.137 0,4.494 3.643,8.137 8.137,8.137 4.494,0 8.136,-3.643 8.136,-8.137 0,-4.494 -3.641,-8.137 -8.136,-8.137"
         id="path73" />
      <path
         style="fill:#ffffff"
         inkscape:connector-curvature="0"
         clip-path="url(#SVGID_2_)"
         d="m 89.645,253.43 c -3.74,0 -6.783,-3.042 -6.783,-6.782 0,-3.74 3.043,-6.783 6.783,-6.783 3.74,0 6.783,3.043 6.783,6.783 0,3.74 -3.043,6.782 -6.783,6.782"
         id="path75" />
      <path
         style="fill:#020203"
         inkscape:connector-curvature="0"
         clip-path="url(#SVGID_2_)"
         d="m 89.645,241.218 c 2.993,0 5.429,2.436 5.429,5.43 0,2.993 -2.436,5.428 -5.429,5.428 -2.993,0 -5.428,-2.435 -5.428,-5.428 0,-2.995 2.435,-5.43 5.428,-5.43 m 0,-2.708 c -4.494,0 -8.137,3.644 -8.137,8.138 0,4.493 3.643,8.137 8.137,8.137 4.495,0 8.137,-3.644 8.137,-8.137 0,-4.495 -3.642,-8.138 -8.137,-8.138"
         id="path77" />
      <path
         style="fill:#ffffff"
         inkscape:connector-curvature="0"
         clip-path="url(#SVGID_2_)"
         d="m 38.539,301.674 c -3.74,0 -6.783,-3.042 -6.783,-6.782 0,-3.74 3.043,-6.783 6.783,-6.783 3.739,0 6.783,3.043 6.783,6.783 0,3.74 -3.044,6.782 -6.783,6.782"
         id="path79" />
      <path
         style="fill:#020203"
         inkscape:connector-curvature="0"
         clip-path="url(#SVGID_2_)"
         d="m 38.539,289.462 c 2.993,0 5.428,2.437 5.428,5.43 0,2.993 -2.436,5.428 -5.428,5.428 -2.994,0 -5.429,-2.435 -5.429,-5.428 0,-2.993 2.435,-5.43 5.429,-5.43 m 0,-2.708 c -4.494,0 -8.137,3.644 -8.137,8.138 0,4.494 3.643,8.137 8.137,8.137 4.494,0 8.137,-3.643 8.137,-8.137 0,-4.494 -3.643,-8.138 -8.137,-8.138"
         id="path81" />
      <path
         style="fill:#ffffff"
         inkscape:connector-curvature="0"
         clip-path="url(#SVGID_2_)"
         d="m 92.507,301.674 c -3.74,0 -6.783,-3.042 -6.783,-6.782 0,-3.74 3.042,-6.783 6.783,-6.783 3.739,0 6.783,3.043 6.783,6.783 0,3.74 -3.043,6.782 -6.783,6.782"
         id="path83" />
      <path
         style="fill:#020203"
         inkscape:connector-curvature="0"
         clip-path="url(#SVGID_2_)"
         d="m 92.507,289.462 c 2.993,0 5.428,2.437 5.428,5.43 0,2.993 -2.436,5.428 -5.428,5.428 -2.994,0 -5.429,-2.435 -5.429,-5.428 0,-2.993 2.436,-5.43 5.429,-5.43 m 0,-2.708 c -4.495,0 -8.137,3.644 -8.137,8.138 0,4.494 3.643,8.137 8.137,8.137 4.494,0 8.137,-3.643 8.137,-8.137 0,-4.494 -3.643,-8.138 -8.137,-8.138"
         id="path85" />
      <path
         style="fill:#ffffff"
         inkscape:connector-curvature="0"
         clip-path="url(#SVGID_2_)"
         d="m 203.306,301.674 c -3.74,0 -6.783,-3.042 -6.783,-6.782 0,-3.74 3.042,-6.783 6.783,-6.783 3.74,0 6.783,3.043 6.783,6.783 0,3.74 -3.044,6.782 -6.783,6.782"
         id="path87" />
      <path
         style="fill:#020203"
         inkscape:connector-curvature="0"
         clip-path="url(#SVGID_2_)"
         d="m 203.306,289.462 c 2.993,0 5.428,2.437 5.428,5.43 0,2.993 -2.435,5.428 -5.428,5.428 -2.993,0 -5.429,-2.435 -5.429,-5.428 0,-2.993 2.436,-5.43 5.429,-5.43 m 0,-2.708 c -4.494,0 -8.137,3.644 -8.137,8.138 0,4.494 3.643,8.137 8.137,8.137 4.494,0 8.137,-3.643 8.137,-8.137 0,-4.494 -3.643,-8.138 -8.137,-8.138"
         id="path89" />
    </g>
    <g
       transform="matrix(0.35759076,0,0,0.35759076,-9.8307103,916.38154)"
       id="g93">
      <g
         id="g95">
        <defs
           id="defs97">
          <rect
             id="SVGID_3_"
             x="237.674"
             y="133.48599"
             width="475.229"
             height="301.99301" />
        </defs>
        <clipPath
           id="clipPath5638">
          <use
             height="100%"
             width="100%"
             y="0"
             x="0"
             style="overflow:visible"
             xlink:href="#SVGID_3_"
             overflow="visible"
             id="use5640" />
        </clipPath>
        <path
           style="fill:#ffffff"
           inkscape:connector-curvature="0"
           clip-path="url(#SVGID_4_)"
           d="M 643.085,268.374"
           id="path103" />
        <line
           style="fill:#020203"
           clip-path="url(#SVGID_4_)"
           x1="640.56201"
           y1="267.31601"
           x2="645.60602"
           y2="269.43399"
           id="line105" />
        <path
           style="fill:#ffffff"
           inkscape:connector-curvature="0"
           clip-path="url(#SVGID_4_)"
           d="M 417.622,268.374"
           id="path107" />
        <line
           style="fill:#020203"
           clip-path="url(#SVGID_4_)"
           x1="415.09201"
           y1="267.33801"
           x2="420.15399"
           y2="269.41101"
           id="line109" />
        <path
           style="fill:#ffffff"
           inkscape:connector-curvature="0"
           clip-path="url(#SVGID_4_)"
           d="M 308.608,268.374"
           id="path111" />
        <line
           style="fill:#020203"
           clip-path="url(#SVGID_4_)"
           x1="306.46301"
           y1="270.07199"
           x2="310.75299"
           y2="266.67801"
           id="line113" />
        <path
           style="fill:#ffffff"
           inkscape:connector-curvature="0"
           clip-path="url(#SVGID_4_)"
           d="M 417.838,268.219"
           id="path115" />
        <line
           style="fill:#020203"
           clip-path="url(#SVGID_4_)"
           x1="416.159"
           y1="270.379"
           x2="419.51599"
           y2="266.06"
           id="line117" />
        <path
           style="fill:#ffffff"
           inkscape:connector-curvature="0"
           clip-path="url(#SVGID_4_)"
           d="M 642.546,268.219"
           id="path119" />
        <line
           style="fill:#020203"
           clip-path="url(#SVGID_4_)"
           x1="640.95898"
           y1="265.992"
           x2="644.133"
           y2="270.44699"
           id="line121" />
        <g
           clip-path="url(#SVGID_4_)"
           id="g123">
          <defs
             id="defs125">
            <rect
               id="SVGID_5_"
               x="237.674"
               y="133.48599"
               width="475.229"
               height="301.99301" />
          </defs>
          <clipPath
             id="clipPath5655">
            <use
               height="100%"
               width="100%"
               y="0"
               x="0"
               style="overflow:visible"
               xlink:href="#SVGID_5_"
               overflow="visible"
               id="use5657" />
          </clipPath>
          <path
             style="fill:#020203"
             inkscape:connector-curvature="0"
             clip-path="url(#SVGID_6_)"
             d="m 260.595,284.563 -7.691,-10.908 -6.886,0 0,10.908 -5.499,0 0,-31.296 13.951,0 c 7.197,0 11.623,3.8 11.623,9.926 0,5.185 -3.084,8.314 -7.466,9.522 l 8.451,11.848 -6.483,0 z m -6.573,-26.288 -8.003,0 0,10.505 8.049,0 c 3.934,0 6.437,-2.056 6.437,-5.274 -10e-4,-3.443 -2.413,-5.231 -6.483,-5.231"
             id="path131" />
          <path
             style="fill:#020203"
             inkscape:connector-curvature="0"
             clip-path="url(#SVGID_6_)"
             d="m 374.079,261.27 c 0,3.846 -2.147,5.813 -4.472,7.02 3.667,1.253 6.215,3.353 6.215,7.646 0,5.635 -4.605,8.629 -11.582,8.629 l -14.484,0 0,-31.297 14.038,0 c 6.304,-0.001 10.285,3.084 10.285,8.002 m -5.501,0.894 c 0,-2.548 -1.965,-4.023 -5.499,-4.023 l -7.913,0 0,8.316 7.511,0 c 3.532,0 5.901,-1.386 5.901,-4.293 m 1.744,13.19 c 0,-2.683 -2.1,-4.247 -6.438,-4.247 l -8.718,0 0,8.585 9.12,0 c 3.756,-0.001 6.036,-1.477 6.036,-4.338"
             id="path133" />
          <polygon
             style="fill:#020203"
             clip-path="url(#SVGID_6_)"
             points="454.341,253.267 460.422,253.267 469.856,277.321 479.246,253.267 485.191,253.267 472.181,284.788 467.352,284.788 "
             id="polygon135" />
          <rect
             style="fill:#020203"
             x="510.32401"
             y="253.26801"
             clip-path="url(#SVGID_6_)"
             width="5.4980001"
             height="31.296"
             id="rect137" />
          <path
             style="fill:#020203"
             inkscape:connector-curvature="0"
             clip-path="url(#SVGID_6_)"
             d="m 555.706,266.412 c 6.618,1.608 10.06,3.979 10.06,9.209 0,5.902 -4.604,9.39 -11.178,9.39 -4.783,0 -9.299,-1.653 -13.054,-5.006 l 3.308,-3.936 c 2.996,2.592 5.991,4.068 9.882,4.068 3.397,0 5.542,-1.564 5.542,-3.979 0,-2.279 -1.25,-3.487 -7.063,-4.828 -6.661,-1.61 -10.418,-3.577 -10.418,-9.39 0,-5.454 4.474,-9.12 10.687,-9.12 4.56,0 8.181,1.386 11.357,3.934 l -2.951,4.158 c -2.817,-2.102 -5.635,-3.22 -8.495,-3.22 -3.22,0 -5.097,1.655 -5.097,3.757 -10e-4,2.458 1.429,3.532 7.42,4.963"
             id="path139" />
          <rect
             style="fill:#020203"
             x="592.01599"
             y="253.26801"
             clip-path="url(#SVGID_6_)"
             width="5.4980001"
             height="31.296"
             id="rect141" />
          <polygon
             style="fill:#020203"
             clip-path="url(#SVGID_6_)"
             points="687.88,253.267 704.647,274.907 704.647,253.267 710.058,253.267 710.058,284.563 705.451,284.563 688.194,262.299 688.194,284.563 682.782,284.563 682.782,253.267 "
             id="polygon143" />
          <path
             style="fill:#ffffff"
             inkscape:connector-curvature="0"
             clip-path="url(#SVGID_6_)"
             d="m 307.529,282.491 c -7.555,0 -13.702,-6.146 -13.702,-13.701 0,-7.554 6.146,-13.7 13.702,-13.7 7.554,0 13.701,6.146 13.701,13.7 0,7.556 -6.147,13.701 -13.701,13.701"
             id="path145" />
          <path
             style="fill:#020203"
             inkscape:connector-curvature="0"
             clip-path="url(#SVGID_6_)"
             d="m 307.529,257.825 c 6.044,0 10.966,4.919 10.966,10.965 0,6.048 -4.921,10.966 -10.966,10.966 -6.047,0 -10.966,-4.918 -10.966,-10.966 0,-6.046 4.919,-10.965 10.966,-10.965 m 0,-5.471 c -9.078,0 -16.437,7.359 -16.437,16.437 0,9.078 7.358,16.438 16.437,16.438 9.079,0 16.436,-7.359 16.436,-16.438 0,-9.078 -7.358,-16.437 -16.436,-16.437"
             id="path147" />
          <path
             style="fill:#ffffff"
             inkscape:connector-curvature="0"
             clip-path="url(#SVGID_6_)"
             d="m 416.543,282.491 c -7.556,0 -13.701,-6.146 -13.701,-13.701 0,-7.554 6.145,-13.7 13.701,-13.7 7.554,0 13.701,6.146 13.701,13.7 0,7.556 -6.147,13.701 -13.701,13.701"
             id="path149" />
          <path
             style="fill:#020203"
             inkscape:connector-curvature="0"
             clip-path="url(#SVGID_6_)"
             d="m 416.543,257.825 c 6.046,0 10.966,4.919 10.966,10.965 0,6.048 -4.92,10.966 -10.966,10.966 -6.046,0 -10.965,-4.918 -10.965,-10.966 0,-6.046 4.919,-10.965 10.965,-10.965 m 0,-5.471 c -9.078,0 -16.437,7.359 -16.437,16.437 0,9.078 7.359,16.438 16.437,16.438 9.078,0 16.437,-7.359 16.437,-16.438 -0.001,-9.078 -7.359,-16.437 -16.437,-16.437"
             id="path151" />
          <path
             style="fill:#ffffff"
             inkscape:connector-curvature="0"
             clip-path="url(#SVGID_6_)"
             d="m 640.353,282.491 c -7.556,0 -13.702,-6.146 -13.702,-13.701 0,-7.554 6.146,-13.7 13.702,-13.7 7.554,0 13.701,6.146 13.701,13.7 0,7.556 -6.148,13.701 -13.701,13.701"
             id="path153" />
          <path
             style="fill:#020203"
             inkscape:connector-curvature="0"
             clip-path="url(#SVGID_6_)"
             d="m 640.353,257.825 c 6.045,0 10.963,4.919 10.963,10.965 0,6.048 -4.918,10.966 -10.963,10.966 -6.046,0 -10.965,-4.918 -10.965,-10.966 0,-6.046 4.919,-10.965 10.965,-10.965 m 0,-5.471 c -9.078,0 -16.437,7.359 -16.437,16.437 0,9.078 7.358,16.438 16.437,16.438 9.077,0 16.436,-7.359 16.436,-16.438 -10e-4,-9.078 -7.359,-16.437 -16.436,-16.437"
             id="path155" />
        </g>
      </g>
    </g>
    <g
       transform="matrix(0.35759076,0,0,0.35759076,-9.8307103,916.38154)"
       id="g157">
      <path
         style="fill:#a0a09f"
         inkscape:connector-curvature="0"
         d="m 251.078,336.138 -10.508,0 0,-25.923 10.508,0 c 8.857,0 14.978,5.592 14.978,12.925 0,7.332 -6.12,12.998 -14.978,12.998 z m 0,-21.775 -5.556,0 0,17.627 5.556,0 c 5.918,0 9.784,-3.666 9.784,-8.776 0,-5.11 -3.865,-8.851 -9.784,-8.851 z"
         id="path159" />
      <path
         style="fill:#a0a09f"
         inkscape:connector-curvature="0"
         d="m 295.97,314.289 -15.944,0 0,6.739 14.132,0 0,4.074 -14.132,0 0,6.962 16.145,0 0,4.073 -21.097,0 0,-25.923 20.896,0 0,4.075 z"
         id="path161" />
      <path
         style="fill:#a0a09f"
         inkscape:connector-curvature="0"
         d="m 325.964,314.289 -15.944,0 0,6.739 14.132,0 0,4.074 -14.132,0 0,6.962 16.146,0 0,4.073 -21.098,0 0,-25.923 20.896,0 0,4.075 z"
         id="path163" />
      <path
         style="fill:#a0a09f"
         inkscape:connector-curvature="0"
         d="m 345.611,327.806 -5.597,0 0,8.332 -4.952,0 0,-25.923 11.112,0 c 6.563,0 10.709,3.407 10.709,8.703 0.001,5.852 -5.071,8.888 -11.272,8.888 z m 0.161,-13.443 -5.758,0 0,9.332 5.758,0 c 3.744,0 6.079,-1.889 6.079,-4.666 10e-4,-3.074 -2.375,-4.666 -6.079,-4.666 z"
         id="path165" />
      <path
         style="fill:#a0a09f"
         inkscape:connector-curvature="0"
         d="m 380.073,310.215 4.952,0 0,21.775 14.817,0 0,4.147 -19.769,0 0,-25.922 z"
         id="path167" />
      <path
         style="fill:#a0a09f"
         inkscape:connector-curvature="0"
         d="m 428.91,314.289 -15.944,0 0,6.739 14.132,0 0,4.074 -14.132,0 0,6.962 16.145,0 0,4.073 -21.097,0 0,-25.923 20.896,0 0,4.075 z"
         id="path169" />
      <path
         style="fill:#a0a09f"
         inkscape:connector-curvature="0"
         d="m 464.984,336.138 -5.234,0 -2.858,-6.258 -13.327,0 -2.898,6.258 -5.073,0 12.401,-26.107 4.59,0 12.399,26.107 z m -14.776,-20.664 -4.831,10.369 9.703,0 -4.872,-10.369 z"
         id="path171" />
      <path
         style="fill:#a0a09f"
         inkscape:connector-curvature="0"
         d="m 490.912,336.138 -6.926,-9.035 -6.199,0 0,9.035 -4.953,0 0,-25.923 12.563,0 c 6.481,0 10.468,3.148 10.468,8.222 0,4.296 -2.778,6.888 -6.724,7.888 l 7.609,9.813 -5.838,0 z m -5.918,-21.775 -7.207,0 0,8.702 7.246,0 c 3.543,0 5.799,-1.703 5.799,-4.369 0,-2.851 -2.175,-4.333 -5.838,-4.333 z"
         id="path173" />
      <path
         style="fill:#a0a09f"
         inkscape:connector-curvature="0"
         d="m 524.65,310.215 4.872,0 0,25.923 -4.147,0 -15.541,-18.442 0,18.442 -4.871,0 0,-25.923 4.59,0 15.098,17.924 0,-17.924 z"
         id="path175" />
      <path
         style="fill:#a0a09f"
         inkscape:connector-curvature="0"
         d="m 545.021,310.215 0,25.923 -4.951,0 0,-25.923 4.951,0 z"
         id="path177" />
      <path
         style="fill:#a0a09f"
         inkscape:connector-curvature="0"
         d="m 575.258,310.215 4.872,0 0,25.923 -4.147,0 -15.541,-18.442 0,18.442 -4.871,0 0,-25.923 4.59,0 15.098,17.924 0,-17.924 z"
         id="path179" />
      <path
         style="fill:#a0a09f"
         inkscape:connector-curvature="0"
         d="m 603.763,336.582 c -8.817,0 -14.615,-5.776 -14.615,-13.368 0,-7.296 6.039,-13.442 14.534,-13.442 4.912,0 7.932,1.259 10.83,3.518 l -3.14,3.443 c -2.175,-1.703 -4.308,-2.776 -7.892,-2.776 -5.193,0 -9.139,4.147 -9.139,9.184 0,5.37 3.824,9.295 9.582,9.295 2.656,0 5.072,-0.777 6.804,-1.963 l 0,-4.851 -7.206,0 0,-3.963 11.998,0 0,10.888 c -2.779,2.183 -6.764,4.035 -11.756,4.035 z"
         id="path181" />
      <path
         style="fill:#a0a09f"
         inkscape:connector-curvature="0"
         d="m 667.052,336.138 -5.233,0 -2.858,-6.258 -13.327,0 -2.898,6.258 -5.073,0 12.4,-26.107 4.59,0 12.399,26.107 z m -14.776,-20.664 -4.831,10.369 9.702,0 -4.871,-10.369 z"
         id="path183" />
      <path
         style="fill:#a0a09f"
         inkscape:connector-curvature="0"
         d="m 685.451,327.806 -5.597,0 0,8.332 -4.952,0 0,-25.923 11.112,0 c 6.563,0 10.71,3.407 10.71,8.703 10e-4,5.852 -5.073,8.888 -11.273,8.888 z m 0.161,-13.443 -5.758,0 0,9.332 5.758,0 c 3.744,0 6.079,-1.889 6.079,-4.666 0,-3.074 -2.375,-4.666 -6.079,-4.666 z"
         id="path185" />
      <path
         style="fill:#a0a09f"
         inkscape:connector-curvature="0"
         d="m 715.365,327.806 -5.597,0 0,8.332 -4.952,0 0,-25.923 11.112,0 c 6.563,0 10.71,3.407 10.71,8.703 10e-4,5.852 -5.073,8.888 -11.273,8.888 z m 0.161,-13.443 -5.758,0 0,9.332 5.758,0 c 3.744,0 6.079,-1.889 6.079,-4.666 0,-3.074 -2.375,-4.666 -6.079,-4.666 z"
         id="path187" />
      <path
         style="fill:#a0a09f"
         inkscape:connector-curvature="0"
         d="m 734.73,310.215 4.952,0 0,21.775 14.816,0 0,4.147 -19.768,0 0,-25.922 z"
         id="path189" />
      <path
         style="fill:#a0a09f"
         inkscape:connector-curvature="0"
         d="m 767.905,310.215 0,25.923 -4.952,0 0,-25.923 4.952,0 z"
         id="path191" />
      <path
         style="fill:#a0a09f"
         inkscape:connector-curvature="0"
         d="m 799.349,314.289 -15.943,0 0,6.739 14.132,0 0,4.074 -14.132,0 0,6.962 16.145,0 0,4.073 -21.097,0 0,-25.923 20.896,0 0,4.075 z"
         id="path193" />
      <path
         style="fill:#a0a09f"
         inkscape:connector-curvature="0"
         d="m 818.956,336.138 -10.509,0 0,-25.923 10.509,0 c 8.857,0 14.978,5.592 14.978,12.925 0,7.332 -6.121,12.998 -14.978,12.998 z m 0,-21.775 -5.557,0 0,17.627 5.557,0 c 5.918,0 9.783,-3.666 9.783,-8.776 0,-5.11 -3.865,-8.851 -9.783,-8.851 z"
         id="path195" />
    </g>
  </g>
</svg>
